<mxfile host="app.diagrams.net" agent="Mozilla/5.0 (Windows NT 10.0; Win64; x64) AppleWebKit/537.36 (KHTML, like Gecko) Chrome/136.0.0.0 Safari/537.36 Edg/136.0.0.0" version="27.0.9" pages="2">
  <diagram name="Page-1" id="TnPCPPeVMcurQjHyc3QL">
    <mxGraphModel dx="1367" dy="960" grid="1" gridSize="10" guides="1" tooltips="1" connect="1" arrows="1" fold="1" page="1" pageScale="1" pageWidth="850" pageHeight="1100" math="0" shadow="0">
      <root>
        <mxCell id="0" />
        <mxCell id="1" parent="0" />
        <mxCell id="cJJ9r8WsQJU3V9VH49c4-5" value="" style="rounded=0;whiteSpace=wrap;html=1;" parent="1" vertex="1">
          <mxGeometry x="50" y="110" width="60" height="130" as="geometry" />
        </mxCell>
        <mxCell id="cJJ9r8WsQJU3V9VH49c4-3" value="" style="rounded=0;whiteSpace=wrap;html=1;" parent="1" vertex="1">
          <mxGeometry x="100" y="110" width="2960" height="130" as="geometry" />
        </mxCell>
        <mxCell id="cJJ9r8WsQJU3V9VH49c4-1" value="use case identification (Researcher contributor initiated or Researcher user initiatted" style="rounded=1;whiteSpace=wrap;html=1;" parent="1" vertex="1">
          <mxGeometry x="120" y="140" width="160" height="70" as="geometry" />
        </mxCell>
        <mxCell id="cJJ9r8WsQJU3V9VH49c4-2" value="Gather or obtain the&amp;nbsp; list of assets available for the use case" style="rounded=1;whiteSpace=wrap;html=1;" parent="1" vertex="1">
          <mxGeometry x="340" y="141" width="150" height="60" as="geometry" />
        </mxCell>
        <mxCell id="cJJ9r8WsQJU3V9VH49c4-4" value="&lt;b&gt;Discover&lt;/b&gt;" style="text;html=1;align=center;verticalAlign=middle;whiteSpace=wrap;rounded=0;rotation=90;" parent="1" vertex="1">
          <mxGeometry x="40" y="150" width="60" height="30" as="geometry" />
        </mxCell>
        <mxCell id="cJJ9r8WsQJU3V9VH49c4-6" value="" style="endArrow=classic;html=1;rounded=0;entryX=0;entryY=0.5;entryDx=0;entryDy=0;" parent="1" source="cJJ9r8WsQJU3V9VH49c4-1" target="cJJ9r8WsQJU3V9VH49c4-2" edge="1">
          <mxGeometry width="50" height="50" relative="1" as="geometry">
            <mxPoint x="400" y="230" as="sourcePoint" />
            <mxPoint x="320" y="180" as="targetPoint" />
          </mxGeometry>
        </mxCell>
        <mxCell id="cJJ9r8WsQJU3V9VH49c4-7" value="" style="rounded=0;whiteSpace=wrap;html=1;" parent="1" vertex="1">
          <mxGeometry x="50" y="240" width="50" height="130" as="geometry" />
        </mxCell>
        <mxCell id="cJJ9r8WsQJU3V9VH49c4-8" value="" style="rounded=0;whiteSpace=wrap;html=1;" parent="1" vertex="1">
          <mxGeometry x="100" y="240" width="2960" height="130" as="geometry" />
        </mxCell>
        <mxCell id="cJJ9r8WsQJU3V9VH49c4-9" value="Assess assets in the research asset catalog (if available) or if not, determine the need for an asset catalog" style="rounded=1;whiteSpace=wrap;html=1;" parent="1" vertex="1">
          <mxGeometry x="354" y="270" width="160" height="70" as="geometry" />
        </mxCell>
        <mxCell id="TuN9V6f_b0551Ek0qzzU-2" style="edgeStyle=orthogonalEdgeStyle;rounded=0;orthogonalLoop=1;jettySize=auto;html=1;entryX=0.5;entryY=0;entryDx=0;entryDy=0;" edge="1" parent="1" source="cJJ9r8WsQJU3V9VH49c4-10" target="cJJ9r8WsQJU3V9VH49c4-15">
          <mxGeometry relative="1" as="geometry" />
        </mxCell>
        <mxCell id="cJJ9r8WsQJU3V9VH49c4-10" value="Assess infrastructure available for hosting the assets" style="rounded=1;whiteSpace=wrap;html=1;" parent="1" vertex="1">
          <mxGeometry x="570" y="271" width="150" height="60" as="geometry" />
        </mxCell>
        <mxCell id="cJJ9r8WsQJU3V9VH49c4-11" value="&lt;b&gt;Assess&amp;nbsp;&lt;/b&gt;" style="text;html=1;align=center;verticalAlign=middle;whiteSpace=wrap;rounded=0;rotation=90;" parent="1" vertex="1">
          <mxGeometry x="40" y="280" width="60" height="30" as="geometry" />
        </mxCell>
        <mxCell id="cJJ9r8WsQJU3V9VH49c4-12" value="" style="endArrow=classic;html=1;rounded=0;entryX=0;entryY=0.5;entryDx=0;entryDy=0;" parent="1" source="cJJ9r8WsQJU3V9VH49c4-9" target="cJJ9r8WsQJU3V9VH49c4-10" edge="1">
          <mxGeometry width="50" height="50" relative="1" as="geometry">
            <mxPoint x="630" y="360" as="sourcePoint" />
            <mxPoint x="550" y="310" as="targetPoint" />
          </mxGeometry>
        </mxCell>
        <mxCell id="cJJ9r8WsQJU3V9VH49c4-13" value="" style="rounded=0;whiteSpace=wrap;html=1;" parent="1" vertex="1">
          <mxGeometry x="50" y="370" width="60" height="130" as="geometry" />
        </mxCell>
        <mxCell id="cJJ9r8WsQJU3V9VH49c4-14" value="" style="rounded=0;whiteSpace=wrap;html=1;" parent="1" vertex="1">
          <mxGeometry x="100" y="370" width="2960" height="130" as="geometry" />
        </mxCell>
        <mxCell id="cJJ9r8WsQJU3V9VH49c4-15" value="If needed, uprade or update the asset catalog for the research group, or provision new asset catalog for the research team" style="rounded=1;whiteSpace=wrap;html=1;" parent="1" vertex="1">
          <mxGeometry x="550" y="400" width="190" height="70" as="geometry" />
        </mxCell>
        <mxCell id="cJJ9r8WsQJU3V9VH49c4-16" value="If needed, upgrade or update existing infrastructure or Provision new infrastructure to host the assets for sharing and collaboration" style="rounded=1;whiteSpace=wrap;html=1;" parent="1" vertex="1">
          <mxGeometry x="800" y="401" width="210" height="60" as="geometry" />
        </mxCell>
        <mxCell id="cJJ9r8WsQJU3V9VH49c4-17" value="&lt;b&gt;Upgrade / Provision&lt;/b&gt;" style="text;html=1;align=center;verticalAlign=middle;whiteSpace=wrap;rounded=0;rotation=90;" parent="1" vertex="1">
          <mxGeometry x="40" y="410" width="60" height="30" as="geometry" />
        </mxCell>
        <mxCell id="cJJ9r8WsQJU3V9VH49c4-18" value="" style="endArrow=classic;html=1;rounded=0;entryX=0;entryY=0.5;entryDx=0;entryDy=0;" parent="1" source="cJJ9r8WsQJU3V9VH49c4-15" target="cJJ9r8WsQJU3V9VH49c4-16" edge="1">
          <mxGeometry width="50" height="50" relative="1" as="geometry">
            <mxPoint x="860" y="490" as="sourcePoint" />
            <mxPoint x="780" y="440" as="targetPoint" />
          </mxGeometry>
        </mxCell>
        <mxCell id="cJJ9r8WsQJU3V9VH49c4-19" value="" style="rounded=0;whiteSpace=wrap;html=1;" parent="1" vertex="1">
          <mxGeometry x="50" y="500" width="50" height="130" as="geometry" />
        </mxCell>
        <mxCell id="cJJ9r8WsQJU3V9VH49c4-20" value="" style="rounded=0;whiteSpace=wrap;html=1;" parent="1" vertex="1">
          <mxGeometry x="100" y="500" width="2960" height="130" as="geometry" />
        </mxCell>
        <mxCell id="cJJ9r8WsQJU3V9VH49c4-21" value="Confirm governance for&amp;nbsp;&lt;div&gt;the assets, address gaps if found&lt;/div&gt;" style="rounded=1;whiteSpace=wrap;html=1;" parent="1" vertex="1">
          <mxGeometry x="810" y="530" width="190" height="70" as="geometry" />
        </mxCell>
        <mxCell id="cJJ9r8WsQJU3V9VH49c4-26" value="" style="edgeStyle=orthogonalEdgeStyle;rounded=0;orthogonalLoop=1;jettySize=auto;html=1;" parent="1" source="cJJ9r8WsQJU3V9VH49c4-22" target="cJJ9r8WsQJU3V9VH49c4-25" edge="1">
          <mxGeometry relative="1" as="geometry" />
        </mxCell>
        <mxCell id="cJJ9r8WsQJU3V9VH49c4-22" value="Confirm FAIR-ness of&amp;nbsp;&lt;div&gt;the assets, address gaps if found&lt;/div&gt;" style="rounded=1;whiteSpace=wrap;html=1;" parent="1" vertex="1">
          <mxGeometry x="1090" y="531" width="210" height="60" as="geometry" />
        </mxCell>
        <mxCell id="cJJ9r8WsQJU3V9VH49c4-23" value="&lt;b&gt;Confirm governance, FAIR, AI Readiness&amp;nbsp;&lt;/b&gt;" style="text;html=1;align=center;verticalAlign=middle;whiteSpace=wrap;rounded=0;rotation=90;" parent="1" vertex="1">
          <mxGeometry x="8.75" y="552.25" width="122.5" height="30" as="geometry" />
        </mxCell>
        <mxCell id="cJJ9r8WsQJU3V9VH49c4-24" value="" style="endArrow=classic;html=1;rounded=0;entryX=0;entryY=0.5;entryDx=0;entryDy=0;" parent="1" source="cJJ9r8WsQJU3V9VH49c4-21" target="cJJ9r8WsQJU3V9VH49c4-22" edge="1">
          <mxGeometry width="50" height="50" relative="1" as="geometry">
            <mxPoint x="1150" y="620" as="sourcePoint" />
            <mxPoint x="1070" y="570" as="targetPoint" />
          </mxGeometry>
        </mxCell>
        <mxCell id="cJJ9r8WsQJU3V9VH49c4-62" value="" style="edgeStyle=orthogonalEdgeStyle;rounded=0;orthogonalLoop=1;jettySize=auto;html=1;" parent="1" target="cJJ9r8WsQJU3V9VH49c4-61" edge="1">
          <mxGeometry relative="1" as="geometry">
            <mxPoint x="2082" y="690" as="sourcePoint" />
          </mxGeometry>
        </mxCell>
        <mxCell id="TuN9V6f_b0551Ek0qzzU-4" style="edgeStyle=orthogonalEdgeStyle;rounded=0;orthogonalLoop=1;jettySize=auto;html=1;" edge="1" parent="1" source="cJJ9r8WsQJU3V9VH49c4-25" target="cJJ9r8WsQJU3V9VH49c4-35">
          <mxGeometry relative="1" as="geometry" />
        </mxCell>
        <mxCell id="cJJ9r8WsQJU3V9VH49c4-25" value="Confirm AI Readiness of asset, address gaps if found and needed" style="whiteSpace=wrap;html=1;rounded=1;" parent="1" vertex="1">
          <mxGeometry x="1380" y="531" width="165" height="60" as="geometry" />
        </mxCell>
        <mxCell id="cJJ9r8WsQJU3V9VH49c4-33" value="" style="rounded=0;whiteSpace=wrap;html=1;" parent="1" vertex="1">
          <mxGeometry x="50" y="630" width="50" height="130" as="geometry" />
        </mxCell>
        <mxCell id="cJJ9r8WsQJU3V9VH49c4-34" value="" style="rounded=0;whiteSpace=wrap;html=1;" parent="1" vertex="1">
          <mxGeometry x="100" y="630" width="2960" height="130" as="geometry" />
        </mxCell>
        <mxCell id="cJJ9r8WsQJU3V9VH49c4-35" value="Register the asset repository on the AgPile Registry" style="rounded=1;whiteSpace=wrap;html=1;" parent="1" vertex="1">
          <mxGeometry x="1386" y="660" width="190" height="70" as="geometry" />
        </mxCell>
        <mxCell id="cJJ9r8WsQJU3V9VH49c4-63" style="edgeStyle=orthogonalEdgeStyle;rounded=0;orthogonalLoop=1;jettySize=auto;html=1;" parent="1" source="cJJ9r8WsQJU3V9VH49c4-36" target="cJJ9r8WsQJU3V9VH49c4-61" edge="1">
          <mxGeometry relative="1" as="geometry" />
        </mxCell>
        <mxCell id="cJJ9r8WsQJU3V9VH49c4-36" value="Harvest the asset manifest from the asset repository" style="rounded=1;whiteSpace=wrap;html=1;" parent="1" vertex="1">
          <mxGeometry x="1636" y="661" width="210" height="60" as="geometry" />
        </mxCell>
        <mxCell id="cJJ9r8WsQJU3V9VH49c4-37" value="&lt;b&gt;Register on AgPile Registry&lt;/b&gt;" style="text;html=1;align=center;verticalAlign=middle;whiteSpace=wrap;rounded=0;rotation=90;" parent="1" vertex="1">
          <mxGeometry x="12.5" y="678.5" width="115" height="30" as="geometry" />
        </mxCell>
        <mxCell id="cJJ9r8WsQJU3V9VH49c4-38" value="" style="endArrow=classic;html=1;rounded=0;entryX=0;entryY=0.5;entryDx=0;entryDy=0;" parent="1" source="cJJ9r8WsQJU3V9VH49c4-35" target="cJJ9r8WsQJU3V9VH49c4-36" edge="1">
          <mxGeometry width="50" height="50" relative="1" as="geometry">
            <mxPoint x="1696" y="750" as="sourcePoint" />
            <mxPoint x="1616" y="700" as="targetPoint" />
          </mxGeometry>
        </mxCell>
        <mxCell id="cJJ9r8WsQJU3V9VH49c4-39" value="" style="rounded=0;whiteSpace=wrap;html=1;" parent="1" vertex="1">
          <mxGeometry x="50" y="760" width="50" height="130" as="geometry" />
        </mxCell>
        <mxCell id="cJJ9r8WsQJU3V9VH49c4-40" value="" style="rounded=0;whiteSpace=wrap;html=1;" parent="1" vertex="1">
          <mxGeometry x="100" y="760" width="2960" height="130" as="geometry" />
        </mxCell>
        <mxCell id="cJJ9r8WsQJU3V9VH49c4-41" value="Define test user stories and test cases" style="rounded=1;whiteSpace=wrap;html=1;" parent="1" vertex="1">
          <mxGeometry x="1933" y="790" width="190" height="70" as="geometry" />
        </mxCell>
        <mxCell id="cJJ9r8WsQJU3V9VH49c4-46" value="" style="edgeStyle=orthogonalEdgeStyle;rounded=0;orthogonalLoop=1;jettySize=auto;html=1;" parent="1" source="cJJ9r8WsQJU3V9VH49c4-42" target="cJJ9r8WsQJU3V9VH49c4-45" edge="1">
          <mxGeometry relative="1" as="geometry" />
        </mxCell>
        <mxCell id="cJJ9r8WsQJU3V9VH49c4-42" value="Execute test user stories and test cases" style="rounded=1;whiteSpace=wrap;html=1;" parent="1" vertex="1">
          <mxGeometry x="2183" y="791" width="155" height="60" as="geometry" />
        </mxCell>
        <mxCell id="cJJ9r8WsQJU3V9VH49c4-43" value="&lt;b&gt;Post-Registration testing&lt;/b&gt;" style="text;html=1;align=center;verticalAlign=middle;whiteSpace=wrap;rounded=0;rotation=90;" parent="1" vertex="1">
          <mxGeometry x="17.5" y="807.5" width="105" height="30" as="geometry" />
        </mxCell>
        <mxCell id="cJJ9r8WsQJU3V9VH49c4-44" value="" style="endArrow=classic;html=1;rounded=0;entryX=0;entryY=0.5;entryDx=0;entryDy=0;" parent="1" source="cJJ9r8WsQJU3V9VH49c4-41" target="cJJ9r8WsQJU3V9VH49c4-42" edge="1">
          <mxGeometry width="50" height="50" relative="1" as="geometry">
            <mxPoint x="2243" y="880" as="sourcePoint" />
            <mxPoint x="2163" y="830" as="targetPoint" />
          </mxGeometry>
        </mxCell>
        <mxCell id="cJJ9r8WsQJU3V9VH49c4-45" value="Report results, if bugs identified log bugs for resolution&amp;nbsp;" style="whiteSpace=wrap;html=1;rounded=1;" parent="1" vertex="1">
          <mxGeometry x="2435.5" y="791" width="120" height="60" as="geometry" />
        </mxCell>
        <mxCell id="cJJ9r8WsQJU3V9VH49c4-53" value="" style="rounded=0;whiteSpace=wrap;html=1;" parent="1" vertex="1">
          <mxGeometry x="50" y="890" width="50" height="170" as="geometry" />
        </mxCell>
        <mxCell id="cJJ9r8WsQJU3V9VH49c4-54" value="" style="rounded=0;whiteSpace=wrap;html=1;" parent="1" vertex="1">
          <mxGeometry x="100" y="890" width="2960" height="170" as="geometry" />
        </mxCell>
        <mxCell id="cJJ9r8WsQJU3V9VH49c4-55" value="Release notification to the requester and/or contributors" style="rounded=1;whiteSpace=wrap;html=1;" parent="1" vertex="1">
          <mxGeometry x="2408" y="923.5" width="190" height="70" as="geometry" />
        </mxCell>
        <mxCell id="cJJ9r8WsQJU3V9VH49c4-56" value="" style="edgeStyle=orthogonalEdgeStyle;rounded=0;orthogonalLoop=1;jettySize=auto;html=1;" parent="1" source="cJJ9r8WsQJU3V9VH49c4-57" target="cJJ9r8WsQJU3V9VH49c4-60" edge="1">
          <mxGeometry relative="1" as="geometry" />
        </mxCell>
        <mxCell id="cJJ9r8WsQJU3V9VH49c4-57" value="Execute test user stories and test cases" style="rounded=1;whiteSpace=wrap;html=1;" parent="1" vertex="1">
          <mxGeometry x="2658" y="921.5" width="155" height="60" as="geometry" />
        </mxCell>
        <mxCell id="cJJ9r8WsQJU3V9VH49c4-58" value="&lt;b&gt;Release notification to requester or Research&amp;nbsp; Community&lt;/b&gt;" style="text;html=1;align=center;verticalAlign=middle;whiteSpace=wrap;rounded=0;rotation=90;" parent="1" vertex="1">
          <mxGeometry x="-1.25" y="961.25" width="152.5" height="30" as="geometry" />
        </mxCell>
        <mxCell id="cJJ9r8WsQJU3V9VH49c4-59" value="" style="endArrow=classic;html=1;rounded=0;entryX=0;entryY=0.5;entryDx=0;entryDy=0;" parent="1" source="cJJ9r8WsQJU3V9VH49c4-55" target="cJJ9r8WsQJU3V9VH49c4-57" edge="1">
          <mxGeometry width="50" height="50" relative="1" as="geometry">
            <mxPoint x="2718" y="1010.5" as="sourcePoint" />
            <mxPoint x="2638" y="960.5" as="targetPoint" />
          </mxGeometry>
        </mxCell>
        <mxCell id="TuN9V6f_b0551Ek0qzzU-8" style="edgeStyle=orthogonalEdgeStyle;rounded=0;orthogonalLoop=1;jettySize=auto;html=1;" edge="1" parent="1" source="cJJ9r8WsQJU3V9VH49c4-60" target="TuN9V6f_b0551Ek0qzzU-7">
          <mxGeometry relative="1" as="geometry" />
        </mxCell>
        <mxCell id="cJJ9r8WsQJU3V9VH49c4-60" value="Report results, if bugs identified log bugs for resolution&amp;nbsp;" style="whiteSpace=wrap;html=1;rounded=1;" parent="1" vertex="1">
          <mxGeometry x="2910.5" y="921.5" width="120" height="60" as="geometry" />
        </mxCell>
        <mxCell id="TuN9V6f_b0551Ek0qzzU-5" style="edgeStyle=orthogonalEdgeStyle;rounded=0;orthogonalLoop=1;jettySize=auto;html=1;" edge="1" parent="1" source="cJJ9r8WsQJU3V9VH49c4-61" target="cJJ9r8WsQJU3V9VH49c4-41">
          <mxGeometry relative="1" as="geometry" />
        </mxCell>
        <mxCell id="cJJ9r8WsQJU3V9VH49c4-61" value="Indexing in the master registry" style="whiteSpace=wrap;html=1;rounded=1;" parent="1" vertex="1">
          <mxGeometry x="1948.5" y="660" width="120" height="60" as="geometry" />
        </mxCell>
        <mxCell id="TuN9V6f_b0551Ek0qzzU-1" style="edgeStyle=orthogonalEdgeStyle;rounded=0;orthogonalLoop=1;jettySize=auto;html=1;entryX=0.386;entryY=0.12;entryDx=0;entryDy=0;entryPerimeter=0;" edge="1" parent="1" source="cJJ9r8WsQJU3V9VH49c4-2" target="cJJ9r8WsQJU3V9VH49c4-9">
          <mxGeometry relative="1" as="geometry" />
        </mxCell>
        <mxCell id="TuN9V6f_b0551Ek0qzzU-3" style="edgeStyle=orthogonalEdgeStyle;rounded=0;orthogonalLoop=1;jettySize=auto;html=1;" edge="1" parent="1" source="cJJ9r8WsQJU3V9VH49c4-16" target="cJJ9r8WsQJU3V9VH49c4-21">
          <mxGeometry relative="1" as="geometry" />
        </mxCell>
        <mxCell id="TuN9V6f_b0551Ek0qzzU-6" style="edgeStyle=orthogonalEdgeStyle;rounded=0;orthogonalLoop=1;jettySize=auto;html=1;entryX=0.524;entryY=0.127;entryDx=0;entryDy=0;entryPerimeter=0;" edge="1" parent="1" source="cJJ9r8WsQJU3V9VH49c4-45" target="cJJ9r8WsQJU3V9VH49c4-55">
          <mxGeometry relative="1" as="geometry" />
        </mxCell>
        <mxCell id="TuN9V6f_b0551Ek0qzzU-7" value="End" style="rounded=1;whiteSpace=wrap;html=1;fillColor=light-dark(#1f1f1f, #ededed);fontColor=light-dark(#f7f2f2, #ededed);" vertex="1" parent="1">
          <mxGeometry x="3100" y="946" width="70" height="25" as="geometry" />
        </mxCell>
        <mxCell id="TuN9V6f_b0551Ek0qzzU-10" style="edgeStyle=orthogonalEdgeStyle;rounded=0;orthogonalLoop=1;jettySize=auto;html=1;" edge="1" parent="1" source="TuN9V6f_b0551Ek0qzzU-9" target="cJJ9r8WsQJU3V9VH49c4-1">
          <mxGeometry relative="1" as="geometry" />
        </mxCell>
        <mxCell id="TuN9V6f_b0551Ek0qzzU-9" value="start" style="ellipse;whiteSpace=wrap;html=1;aspect=fixed;fontColor=light-dark(#fafafa, #ededed);fillColor=light-dark(#1a1a1a, #ededed);" vertex="1" parent="1">
          <mxGeometry x="140" y="50" width="40" height="40" as="geometry" />
        </mxCell>
        <mxCell id="TuN9V6f_b0551Ek0qzzU-11" value="&lt;font style=&quot;font-size: 14px;&quot;&gt;&lt;b&gt;Research Contributors Journey&lt;/b&gt;&lt;/font&gt;" style="text;html=1;align=center;verticalAlign=middle;whiteSpace=wrap;rounded=0;" vertex="1" parent="1">
          <mxGeometry x="1320" y="60" width="270" height="30" as="geometry" />
        </mxCell>
      </root>
    </mxGraphModel>
  </diagram>
  <diagram id="yN12Alc_sTEc4-fuZvDQ" name="Page-2">
    <mxGraphModel dx="1057" dy="1268" grid="0" gridSize="10" guides="1" tooltips="1" connect="1" arrows="1" fold="1" page="0" pageScale="1" pageWidth="850" pageHeight="1100" math="0" shadow="0">
      <root>
        <mxCell id="0" />
        <mxCell id="1" parent="0" />
        <mxCell id="YLn1o2tZkH1z6aeDd_1A-1" value="" style="strokeWidth=2;html=1;shape=mxgraph.flowchart.start_2;whiteSpace=wrap;" vertex="1" parent="1">
          <mxGeometry x="-61" y="-78" width="50" height="53" as="geometry" />
        </mxCell>
      </root>
    </mxGraphModel>
  </diagram>
</mxfile>
